<svg width="24" height="24" viewBox="0 0 200 200" fill="none" xmlns="http://www.w3.org/2000/svg">
<path d="M115.979 44.9641C113.733 46.3647 113.733 49.6353 115.979 51.0359L172.306 86.158C174.689 87.6439 177.777 85.9304 177.777 83.122V12.878C177.777 10.0696 174.689 8.35608 172.306 9.84204L115.979 44.9641Z" fill="white"/>
<path d="M163.022 154.543C165.737 156.645 166.387 160.504 164.316 163.243C153.349 177.751 138.801 188.675 122.304 194.712C103.972 201.42 84.1549 201.754 65.6379 195.669C47.1209 189.584 30.8351 177.384 19.0698 160.786C7.3045 144.187 0.651245 124.024 0.0452576 103.131C-0.560745 82.2374 4.911 61.6641 15.6913 44.3029C26.4717 26.9417 42.0186 13.6655 60.1466 6.34055C78.2747 -0.984429 98.0724 -1.98989 116.757 3.46549C133.559 8.37131 148.702 18.28 160.484 32.0016C162.727 34.6143 162.318 38.5151 159.736 40.7927C156.862 43.3266 152.456 42.8618 149.897 40.0106C139.925 28.899 127.333 20.8574 113.42 16.7954C97.3157 12.0933 80.2517 12.9599 64.6269 19.2734C49.002 25.587 35.6019 37.0299 26.3102 51.9938C17.0184 66.9577 12.3022 84.6902 12.8246 102.699C13.3469 120.707 19.0814 138.086 29.2221 152.392C39.3628 166.699 53.3998 177.214 69.3599 182.459C85.32 187.704 102.401 187.415 118.201 181.634C131.876 176.63 143.997 167.729 153.313 155.933C155.673 152.945 160.012 152.212 163.022 154.543Z" fill="white"/>
<path d="M60.2175 65.6121V143H50.8464V75.4367H50.3929L31.4994 87.982V78.4597L50.8464 65.6121H60.2175ZM107.716 144.058C102.023 144.058 97.1733 142.509 93.1679 139.41C89.1624 136.286 86.1017 131.765 83.9856 125.845C81.8695 119.9 80.8115 112.72 80.8115 104.306C80.8115 95.9425 81.8695 88.8007 83.9856 82.8808C86.1269 76.9356 89.2002 72.4012 93.2057 69.2774C97.2363 66.1285 102.073 64.554 107.716 64.554C113.359 64.554 118.183 66.1285 122.188 69.2774C126.219 72.4012 129.292 76.9356 131.408 82.8808C133.55 88.8007 134.62 95.9425 134.62 104.306C134.62 112.72 133.562 119.9 131.446 125.845C129.33 131.765 126.269 136.286 122.264 139.41C118.258 142.509 113.409 144.058 107.716 144.058ZM107.716 135.745C113.359 135.745 117.742 133.024 120.866 127.583C123.99 122.142 125.551 114.383 125.551 104.306C125.551 97.6051 124.833 91.8993 123.398 87.1885C121.987 82.4777 119.946 78.8879 117.276 76.4192C114.631 73.9504 111.444 72.7161 107.716 72.7161C102.123 72.7161 97.7527 75.4745 94.6038 80.9914C91.4549 86.4831 89.8804 94.2547 89.8804 104.306C89.8804 111.007 90.5858 116.7 91.9965 121.386C93.4072 126.071 95.4351 129.636 98.0802 132.08C100.75 134.523 103.962 135.745 107.716 135.745Z" fill="white"/>
</svg>